<?xml version="1.0" encoding="UTF-8"?>
<svg xmlns="http://www.w3.org/2000/svg" xmlns:xlink="http://www.w3.org/1999/xlink" width="100.787px" height="100.787px" viewBox="0 0 420 420" version="1.1">
<g id="surface1">
<path style=" stroke:none;fill-rule:nonzero;fill:rgb(0%,0%,0%);fill-opacity:1;" d="M 282.941406 352.425781 C 280.765625 351.101562 278.867188 349.324219 277.363281 347.175781 C 276.664062 346.183594 276.078125 345.132812 275.589844 344.046875 L 28.285156 344.046875 L 28.285156 100.292969 L 363.964844 100.292969 L 363.964844 259.457031 C 371.132812 260.105469 377.144531 264.808594 379.667969 271.253906 C 381.90625 270.03125 384.394531 269.273438 387.015625 269.042969 C 388.785156 268.886719 390.546875 269 392.25 269.335938 L 392.25 39.566406 C 392.25 26.570312 381.679688 15.996094 368.679688 15.996094 L 23.570312 15.996094 C 10.574219 15.996094 0 26.570312 0 39.566406 L 0 348.765625 C 0 361.761719 10.574219 372.335938 23.570312 372.335938 L 280.792969 372.335938 C 278.785156 368.273438 278.308594 363.683594 279.492188 359.269531 C 280.171875 356.730469 281.351562 354.414062 282.941406 352.425781 Z M 338.082031 55.578125 C 338.082031 50.769531 341.976562 46.875 346.785156 46.875 L 355.488281 46.875 C 360.296875 46.875 364.191406 50.769531 364.191406 55.578125 L 364.191406 65.441406 C 364.191406 70.25 360.292969 74.144531 355.488281 74.144531 L 346.785156 74.144531 C 341.976562 74.144531 338.082031 70.25 338.082031 65.441406 Z M 297.609375 55.578125 C 297.609375 50.769531 301.503906 46.875 306.3125 46.875 L 315.015625 46.875 C 319.824219 46.875 323.71875 50.769531 323.71875 55.578125 L 323.71875 65.441406 C 323.71875 70.25 319.824219 74.144531 315.015625 74.144531 L 306.3125 74.144531 C 301.503906 74.144531 297.609375 70.25 297.609375 65.441406 Z M 257.136719 55.578125 C 257.136719 50.769531 261.035156 46.875 265.839844 46.875 L 274.542969 46.875 C 279.351562 46.875 283.246094 50.769531 283.246094 55.578125 L 283.246094 65.441406 C 283.246094 70.25 279.351562 74.144531 274.542969 74.144531 L 265.839844 74.144531 C 261.035156 74.144531 257.136719 70.25 257.136719 65.441406 Z M 257.136719 55.578125 "/>
<path style=" stroke:none;fill-rule:nonzero;fill:rgb(0%,0%,0%);fill-opacity:1;" d="M 419.945312 335.824219 L 417.328125 320.992188 C 416.976562 318.996094 415.070312 317.660156 413.074219 318.011719 L 399.882812 320.335938 C 398.300781 316.621094 396.277344 313.140625 393.875 309.957031 L 402.492188 299.6875 C 403.117188 298.941406 403.421875 297.976562 403.339844 297.003906 C 403.253906 296.035156 402.785156 295.136719 402.039062 294.511719 L 390.503906 284.828125 C 389.757812 284.203125 388.789062 283.898438 387.820312 283.984375 C 386.847656 284.070312 385.953125 284.535156 385.328125 285.28125 L 376.71875 295.542969 C 373.183594 293.746094 369.40625 292.355469 365.445312 291.441406 L 365.445312 278.046875 C 365.445312 276.015625 363.800781 274.371094 361.773438 274.371094 L 346.710938 274.371094 C 344.683594 274.371094 343.035156 276.015625 343.035156 278.046875 L 343.035156 291.441406 C 339.074219 292.355469 335.300781 293.746094 331.761719 295.542969 L 323.152344 285.285156 C 321.851562 283.730469 319.535156 283.527344 317.976562 284.832031 L 306.441406 294.511719 C 305.695312 295.136719 305.226562 296.035156 305.140625 297.003906 C 305.058594 297.976562 305.363281 298.941406 305.988281 299.6875 L 314.605469 309.957031 C 312.207031 313.140625 310.183594 316.625 308.597656 320.339844 L 295.410156 318.011719 C 293.414062 317.664062 291.507812 318.996094 291.152344 320.992188 L 288.539062 335.824219 C 288.371094 336.785156 288.589844 337.769531 289.144531 338.570312 C 289.707031 339.367188 290.554688 339.910156 291.515625 340.082031 L 304.714844 342.40625 C 304.929688 346.496094 305.644531 350.453125 306.789062 354.222656 L 295.1875 360.917969 C 294.34375 361.402344 293.726562 362.207031 293.476562 363.148438 C 293.222656 364.085938 293.355469 365.089844 293.84375 365.933594 L 301.371094 378.976562 C 301.859375 379.820312 302.660156 380.4375 303.601562 380.6875 C 303.914062 380.773438 304.234375 380.8125 304.554688 380.8125 C 305.191406 380.8125 305.824219 380.648438 306.390625 380.320312 L 318 373.617188 C 320.730469 376.542969 323.8125 379.136719 327.183594 381.328125 L 322.597656 393.921875 C 322.265625 394.839844 322.308594 395.847656 322.71875 396.730469 C 323.132812 397.617188 323.878906 398.296875 324.792969 398.628906 L 338.941406 403.78125 C 339.347656 403.929688 339.773438 404.003906 340.199219 404.003906 C 340.730469 404.003906 341.261719 403.890625 341.753906 403.660156 C 342.636719 403.25 343.316406 402.503906 343.652344 401.585938 L 348.234375 388.992188 C 350.199219 389.230469 352.199219 389.351562 354.230469 389.351562 C 356.257812 389.351562 358.261719 389.226562 360.226562 388.992188 L 364.808594 401.585938 C 365.140625 402.503906 365.824219 403.25 366.707031 403.660156 C 367.195312 403.886719 367.726562 404.003906 368.261719 404.003906 C 368.683594 404.003906 369.113281 403.929688 369.519531 403.78125 L 383.671875 398.628906 C 384.582031 398.296875 385.328125 397.613281 385.742188 396.730469 C 386.152344 395.847656 386.195312 394.839844 385.863281 393.921875 L 381.277344 381.328125 C 384.644531 379.136719 387.726562 376.542969 390.460938 373.621094 L 402.070312 380.324219 C 402.632812 380.648438 403.269531 380.816406 403.90625 380.816406 C 404.226562 380.816406 404.546875 380.773438 404.859375 380.691406 C 405.800781 380.4375 406.601562 379.820312 407.085938 378.980469 L 414.617188 365.933594 C 415.105469 365.09375 415.238281 364.085938 414.984375 363.148438 C 414.730469 362.207031 414.117188 361.40625 413.273438 360.917969 L 401.671875 354.222656 C 402.820312 350.453125 403.527344 346.496094 403.746094 342.410156 L 416.945312 340.082031 C 417.90625 339.914062 418.757812 339.371094 419.316406 338.570312 C 419.894531 337.769531 420.113281 336.785156 419.945312 335.824219 Z M 354.242188 359.394531 C 343.085938 359.394531 334.039062 350.347656 334.039062 339.191406 C 334.039062 328.03125 343.085938 318.988281 354.242188 318.988281 C 365.398438 318.988281 374.445312 328.03125 374.445312 339.191406 C 374.445312 350.347656 365.398438 359.394531 354.242188 359.394531 Z M 354.242188 359.394531 "/>
<path style=" stroke:none;fill-rule:nonzero;fill:rgb(0%,0%,0%);fill-opacity:1;" d="M 164.722656 235.410156 C 164.722656 230.660156 161.9375 226.292969 157.625 224.289062 L 118.164062 205.957031 L 157.625 187.617188 C 161.9375 185.613281 164.722656 181.25 164.722656 176.5 L 164.722656 176.179688 C 164.722656 171.96875 162.601562 168.105469 159.054688 165.84375 C 157.09375 164.589844 154.808594 163.929688 152.449219 163.929688 C 150.671875 163.929688 148.886719 164.320312 147.289062 165.0625 L 84.199219 194.398438 C 79.890625 196.402344 77.105469 200.769531 77.105469 205.519531 L 77.105469 206.394531 C 77.105469 211.140625 79.890625 215.5 84.199219 217.515625 L 147.296875 246.855469 C 148.925781 247.609375 150.664062 247.992188 152.457031 247.992188 C 154.796875 247.992188 157.074219 247.328125 159.054688 246.070312 C 162.605469 243.800781 164.722656 239.9375 164.722656 235.734375 Z M 164.722656 235.410156 "/>
<path style=" stroke:none;fill-rule:nonzero;fill:rgb(0%,0%,0%);fill-opacity:1;" d="M 226.96875 134.035156 C 224.667969 130.882812 220.964844 129.003906 217.066406 129.003906 L 216.753906 129.003906 C 211.398438 129.003906 206.703125 132.429688 205.070312 137.519531 L 163.503906 266.3125 C 162.320312 270.03125 162.988281 274.128906 165.285156 277.277344 C 167.585938 280.425781 171.289062 282.308594 175.1875 282.308594 L 175.503906 282.308594 C 180.855469 282.308594 185.546875 278.878906 187.179688 273.789062 L 228.738281 145.007812 C 229.933594 141.292969 229.273438 137.191406 226.96875 134.035156 Z M 226.96875 134.035156 "/>
<path style=" stroke:none;fill-rule:nonzero;fill:rgb(0%,0%,0%);fill-opacity:1;" d="M 308.050781 194.398438 L 244.960938 165.058594 C 243.371094 164.320312 241.585938 163.929688 239.808594 163.929688 C 237.449219 163.929688 235.164062 164.589844 233.203125 165.839844 C 229.652344 168.105469 227.53125 171.96875 227.53125 176.179688 L 227.53125 176.5 C 227.53125 181.246094 230.316406 185.613281 234.628906 187.625 L 274.089844 205.957031 L 234.628906 224.289062 C 230.316406 226.292969 227.53125 230.660156 227.53125 235.410156 L 227.53125 235.734375 C 227.53125 239.9375 229.652344 243.800781 233.203125 246.070312 C 235.175781 247.328125 237.457031 247.992188 239.796875 247.992188 C 241.589844 247.992188 243.324219 247.609375 244.96875 246.851562 L 308.058594 217.511719 C 312.367188 215.503906 315.148438 211.140625 315.148438 206.394531 L 315.148438 205.519531 C 315.144531 200.769531 312.363281 196.402344 308.050781 194.398438 Z M 308.050781 194.398438 "/>
</g>
</svg>
